PathFileType	4	(X/Y/Z)	Walk3.trc
DataRate	CameraRate	NumFrames	NumMarkers	Units	OrigDataRate	OrigDataStartFrame	OrigNumFrames
200.000000	200.000000	8	59	mm	200.000000	478	508
Frame#	Times		LFHD		RFHD		LBHD		RBHD		C7		T10		CLAV		STRN		RBack		LASI		RACR1		RUA1		RElbow		RFA1		RWRR		RWRU		RCAR		LACR1		LUA1		LElbow		LElbowM		LFA1		LWRR		LWRU		LCAR		RTH1		RTH3		RTH2		RTB1		RTB4		LTH1		LTH3		LTH2		LTH4		LLFC		LTB1		LTB2		LTB4		LMT1		LToe		LMMAL		RTB2		RTH4		LCAL		LTB3		RElbowM		LMT5		RTB3		LPSI		RPSI		LLMAL		RLFC		RASI		RMT1		RToe		RCAL		RMMAL		RMT5		RLMAL
			X1	Y1	Z1	X2	Y2	Z2	X3	Y3	Z3	X4	Y4	Z4	X5	Y5	Z5	X6	Y6	Z6	X7	Y7	Z7	X8	Y8	Z8	X9	Y9	Z9	X10	Y10	Z10	X11	Y11	Z11	X12	Y12	Z12	X13	Y13	Z13	X14	Y14	Z14	X15	Y15	Z15	X16	Y16	Z16	X17	Y17	Z17	X18	Y18	Z18	X19	Y19	Z19	X20	Y20	Z20	X21	Y21	Z21	X22	Y22	Z22	X23	Y23	Z23	X24	Y24	Z24	X25	Y25	Z25	X26	Y26	Z26	X27	Y27	Z27	X28	Y28	Z28	X29	Y29	Z29	X30	Y30	Z30	X31	Y31	Z31	X32	Y32	Z32	X33	Y33	Z33	X34	Y34	Z34	X35	Y35	Z35	X36	Y36	Z36	X37	Y37	Z37	X38	Y38	Z38	X39	Y39	Z39	X40	Y40	Z40	X41	Y41	Z41	X42	Y42	Z42	X43	Y43	Z43	X44	Y44	Z44	X45	Y45	Z45	X46	Y46	Z46	X47	Y47	Z47	X48	Y48	Z48	X49	Y49	Z49	X50	Y50	Z50	X51	Y51	Z51	X52	Y52	Z52	X53	Y53	Z53	X54	Y54	Z54	X55	Y55	Z55	X56	Y56	Z56	X57	Y57	Z57	X58	Y58	Z58	X59	Y59	Z59

478	2.39	743.68	1444.7	-29.631	733.63	1431.6	65.676	617.62	1367.1	-64.377	604.7	1357.1	68.605	577.22	1276.4	-3.6919	493.71	1075.2	5.0194	720.18	1195	-2.1882	771.53	1089.4	0.94586	531.08	1152.9	114.25	698.63	827.74	-159.12	646.91	1221.1	178.04	664.15	1075.7	256.19	665.82	945.15	281.64	736.47	834.56	280.62	759.44	737.92	238.35	730.73	733.75	304.3	785.48	684.21	285.92	647.49	1225.1	-190.82	674.95	1059.8	-257.97	639.48	943.94	-281.41	603.41	918.95	-219.37	709.63	855.56	-303.53	755.97	752.36	-278.24	715.6	745.49	-326.44	760.45	702.75	-324.11	677.55	648.74	216.43	733.14	488.08	180.04	756.18	590.92	181.42	719.6	297.27	115.22	659.38	235.11	103.01	645.3	653.68	-206.03	653.06	486.99	-154.29	702.85	581.82	-162.13	648.67	569.74	-184.06	677.95	396	-114.63	691.98	296.86	-46.61	652.07	211.08	-98.015	671.43	211.64	-38.716	723.81	33.392	-2.9857	775.57	30.079	-28.836	623.09	75.03	15.944	627.03	256.68	149.93	703.49	567.15	200.71	556.28	45.708	-17.998	659.04	129.28	-32.46	614.65	912.19	211.84	678.23	21.543	-88.176	606.06	170.38	91.484	447.82	852.81	-42.621	456.05	847.43	63.148	599.83	58.916	-62.194	721.46	408.17	162.24	716.58	838.85	164	607.27	58.339	61.507	646.44	38.878	103.84	470.43	153.59	64.538	550.72	144.77	39.026	570.53	62.833	141.79	525.05	146.08	118.27
479	2.395	748.71	1445.2	-29.548	738.75	1431.9	65.746	622.78	1367.3	-64.321	609.97	1357.1	68.659	582.53	1276.7	-3.7483	498.98	1075.6	4.6762	725.48	1195.2	-2.2323	776.74	1089.6	1.5322	536.37	1153.1	114.03	703.41	827.78	-159.44	652.15	1221.3	177.89	668.9	1076.1	256.29	670.78	945.51	281.79	741.1	834.74	280.76	763.5	737.86	238.8	735.1	734.03	304.89	789.63	684.25	286.47	652.84	1225.6	-190.86	680.15	1060.4	-258.2	645.58	944.24	-281.67	609.53	919.04	-219.61	717.28	856.72	-302.86	765.2	754.62	-276.68	725.26	746.7	-325.08	771.09	705.17	-322.4	683.52	649.42	216.24	741.3	489.65	179.14	762.94	592.79	180.93	730.73	298.28	114.55	672.19	234.52	102.66	649.56	653.52	-205.93	656.24	486.81	-154.16	706.55	581.37	-161.99	652.36	569.53	-183.88	680.41	395.62	-114.48	693.7	296.36	-46.436	653.27	210.83	-97.881	672.6	211.26	-38.571	723.87	33.321	-2.9221	775.75	29.967	-28.88	623.32	75.002	16.121	639.61	255.09	149.89	710.63	568.21	200.27	556.37	45.891	-17.849	659.61	128.99	-32.333	619.24	912.56	212.21	678.24	21.503	-88.081	620.71	168.33	91.425	453	853.24	-43.028	460.96	848.09	62.699	600	58.997	-62.089	730.4	409.4	161.56	721.29	839.54	164.29	625.55	57.05	61.468	665.77	39.042	103.48	485.28	147.24	65.491	565.79	141.2	39.446	589.25	60.094	142.03	540.63	141.63	118.84
480	2.4	753.73	1445.6	-29.434	743.87	1432.1	65.843	627.93	1367.5	-64.248	615.22	1357.1	68.725	587.84	1276.9	-3.8135	504.25	1075.8	4.3318	730.78	1195.4	-2.2761	781.94	1089.7	2.1031	541.64	1153.2	113.8	708.23	827.75	-159.72	657.4	1221.4	177.73	673.72	1076.4	256.36	675.75	945.83	281.96	745.76	834.89	280.91	767.66	737.8	239.28	739.53	734.29	305.49	793.85	684.29	287.08	658.21	1226	-190.91	685.31	1060.8	-258.46	651.63	944.49	-281.93	615.63	919.09	-219.84	724.88	857.89	-302.2	774.37	756.92	-275.13	734.89	747.95	-323.7	781.66	707.63	-320.68	689.46	650.05	216.08	749.3	491.16	178.21	769.6	594.57	180.44	741.72	299.24	113.92	685.01	233.87	102.34	653.86	653.35	-205.82	659.43	486.62	-154.04	710.28	580.91	-161.81	656.08	569.31	-183.69	682.86	395.23	-114.33	695.39	295.85	-46.252	654.46	210.58	-97.742	673.75	210.88	-38.423	723.92	33.254	-2.8623	775.93	29.862	-28.928	623.53	74.973	16.307	652.18	253.4	149.86	717.69	569.21	199.83	556.46	46.073	-17.698	660.17	128.7	-32.201	623.86	912.88	212.55	678.25	21.459	-87.982	635.49	166.23	91.384	458.16	853.59	-43.388	465.89	848.66	62.297	600.16	59.078	-61.985	739.1	410.56	160.89	726.01	840.15	164.56	644	55.779	61.439	685.2	39.298	103.14	500.46	140.73	66.421	581.09	137.51	39.869	608.17	57.356	142.26	556.44	137.05	119.4
481	2.405	758.76	1445.9	-29.291	748.99	1432.3	65.967	633.09	1367.7	-64.159	620.48	1357	68.802	593.14	1277	-3.8886	509.51	1076	3.9873	736.08	1195.5	-2.3193	787.14	1089.8	2.6484	546.91	1153.4	113.57	713.08	827.66	-159.96	662.65	1221.5	177.56	678.61	1076.6	256.39	680.73	946.12	282.14	750.46	835.02	281.08	771.91	737.72	239.81	744.01	734.53	306.12	798.16	684.34	287.76	663.6	1226.4	-190.95	690.43	1061.3	-258.76	657.63	944.7	-282.2	621.72	919.09	-220.06	732.42	859.04	-301.56	783.48	759.25	-273.57	744.47	749.23	-322.31	792.15	710.12	-318.92	695.37	650.62	215.94	757.11	492.6	177.25	776.17	596.25	179.95	752.58	300.16	113.34	697.83	233.18	102.05	658.19	653.18	-205.68	662.64	486.42	-153.91	714.03	580.45	-161.6	659.84	569.08	-183.49	685.3	394.82	-114.18	697.06	295.33	-46.061	655.64	210.32	-97.601	674.9	210.5	-38.272	723.98	33.191	-2.806	776.1	29.765	-28.98	623.74	74.944	16.503	664.73	251.64	149.84	724.65	570.17	199.4	556.55	46.255	-17.545	660.72	128.41	-32.065	628.52	913.13	212.88	678.27	21.414	-87.882	650.39	164.08	91.365	463.32	853.87	-43.691	470.84	849.14	61.949	600.32	59.159	-61.883	747.56	411.62	160.24	730.75	840.69	164.8	662.61	54.555	61.437	704.72	39.674	102.83	515.97	134.07	67.315	596.62	133.75	40.292	627.25	54.658	142.5	572.48	132.39	119.95
482	2.41	763.8	1446.2	-29.118	754.11	1432.4	66.118	638.26	1367.8	-64.057	625.73	1356.8	68.889	598.43	1277.1	-3.9735	514.77	1076.2	3.6441	741.37	1195.6	-2.3613	792.35	1089.8	3.1586	552.16	1153.5	113.33	717.96	827.5	-160.16	667.89	1221.5	177.41	683.58	1076.7	256.4	685.71	946.36	282.32	755.19	835.12	281.27	776.25	737.63	240.37	748.54	734.74	306.76	802.56	684.39	288.48	669.01	1226.8	-191	695.52	1061.7	-259.08	663.59	944.85	-282.48	627.81	919.04	-220.28	739.91	860.18	-300.94	792.52	761.61	-272.02	754	750.53	-320.91	802.54	712.64	-317.14	701.26	651.13	215.82	764.74	493.95	176.27	782.63	597.82	179.46	763.28	301.05	112.81	710.63	232.47	101.79	662.56	653	-205.54	665.86	486.22	-153.77	717.79	579.99	-161.35	663.63	568.84	-183.29	687.71	394.41	-114.02	698.71	294.82	-45.867	656.82	210.05	-97.459	676.04	210.12	-38.119	724.02	33.133	-2.7528	776.26	29.676	-29.034	623.92	74.915	16.709	677.26	249.81	149.83	731.51	571.05	198.96	556.64	46.438	-17.395	661.27	128.11	-31.926	633.21	913.31	213.19	678.28	21.368	-87.782	665.41	161.93	91.37	468.46	854.08	-43.93	475.83	849.53	61.663	600.48	59.243	-61.783	755.76	412.58	159.61	735.52	841.15	165.01	681.38	53.412	61.481	724.31	40.198	102.58	531.83	127.31	68.166	612.41	129.92	40.715	646.5	52.04	142.76	588.75	127.66	120.48
483	2.415	768.85	1446.5	-28.918	759.23	1432.4	66.294	643.42	1367.9	-63.941	630.98	1356.6	68.986	603.73	1277.2	-4.0675	520.03	1076.3	3.3034	746.67	1195.6	-2.4015	797.56	1089.8	3.6246	557.39	1153.5	113.08	722.86	827.27	-160.31	673.13	1221.5	177.25	688.62	1076.8	256.37	690.7	946.55	282.5	759.95	835.2	281.48	780.68	737.53	240.96	753.12	734.92	307.41	807.02	684.45	289.27	674.44	1227.1	-191.06	700.59	1062	-259.43	669.52	944.95	-282.78	633.88	918.94	-220.5	747.35	861.29	-300.35	801.49	763.99	-270.47	763.48	751.85	-319.5	812.84	715.18	-315.35	707.13	651.59	215.72	772.15	495.21	175.28	788.99	599.25	178.98	773.81	301.9	112.32	723.4	231.73	101.56	666.95	652.8	-205.37	669.08	486.01	-153.64	721.57	579.51	-161.08	667.43	568.59	-183.07	690.1	393.99	-113.86	700.34	294.3	-45.67	657.99	209.78	-97.317	677.17	209.74	-37.963	724.07	33.079	-2.7021	776.42	29.596	-29.087	624.1	74.889	16.924	689.75	247.93	149.83	738.25	571.87	198.53	556.73	46.624	-17.248	661.82	127.82	-31.785	637.94	913.42	213.49	678.31	21.325	-87.686	680.54	159.78	91.399	473.59	854.24	-44.096	480.84	849.83	61.444	600.63	59.329	-61.684	763.69	413.43	158.99	740.32	841.55	165.21	700.28	52.381	61.581	743.93	40.897	102.41	548.04	120.47	68.966	628.43	126.06	41.137	665.9	49.544	143.05	605.24	122.92	121
484	2.42	773.9	1446.7	-28.692	764.35	1432.4	66.495	648.6	1368	-63.813	636.22	1356.4	69.093	609.02	1277.3	-4.1688	525.28	1076.4	2.9669	751.96	1195.6	-2.4391	802.76	1089.6	4.0387	562.62	1153.5	112.82	727.79	826.99	-160.4	678.38	1221.4	177.11	693.74	1076.8	256.31	695.68	946.69	282.7	764.73	835.24	281.73	785.2	737.41	241.59	757.74	735.07	308.08	811.56	684.5	290.1	679.88	1227.3	-191.11	705.65	1062.3	-259.8	675.41	945.01	-283.08	639.96	918.8	-220.72	754.74	862.39	-299.78	810.39	766.37	-268.94	772.9	753.2	-318.08	823.04	717.72	-313.52	712.98	651.97	215.65	779.34	496.36	174.29	795.23	600.55	178.52	784.17	302.73	111.87	736.13	231	101.36	671.35	652.6	-205.18	672.3	485.79	-153.5	725.34	579.03	-160.8	671.23	568.32	-182.85	692.48	393.56	-113.71	701.96	293.77	-45.472	659.15	209.51	-97.176	678.28	209.36	-37.804	724.11	33.028	-2.6531	776.56	29.524	-29.14	624.26	74.865	17.148	702.2	246.01	149.84	744.86	572.6	198.11	556.81	46.817	-17.108	662.36	127.53	-31.644	642.7	913.47	213.76	678.33	21.289	-87.597	695.76	157.67	91.455	478.71	854.34	-44.182	485.89	850.05	61.298	600.77	59.419	-61.586	771.33	414.15	158.4	745.14	841.87	165.38	719.32	51.498	61.747	763.58	41.797	102.34	564.59	113.61	69.71	644.68	122.21	41.555	685.42	47.209	143.38	621.94	118.2	121.49
485	2.425	778.96	1446.8	-28.44	769.48	1432.4	66.72	653.77	1368	-63.676	641.45	1356.2	69.21	614.31	1277.2	-4.2752	530.53	1076.5	2.6362	757.24	1195.5	-2.4735	807.97	1089.5	4.3943	567.83	1153.5	112.56	732.73	826.64	-160.44	683.62	1221.2	176.98	698.93	1076.7	256.22	700.65	946.78	282.89	769.54	835.25	282	789.81	737.28	242.24	762.39	735.18	308.75	816.16	684.55	290.97	685.34	1227.5	-191.17	710.7	1062.6	-260.19	681.27	945.01	-283.39	646.02	918.61	-220.95	762.07	863.46	-299.24	819.21	768.76	-267.41	782.26	754.55	-316.65	833.14	720.27	-311.69	718.8	652.29	215.61	786.29	497.38	173.31	801.36	601.7	178.07	794.34	303.54	111.47	748.81	230.28	101.2	675.75	652.38	-204.98	675.5	485.56	-153.36	729.12	578.54	-160.51	675.04	568.04	-182.62	694.84	393.12	-113.56	703.57	293.25	-45.274	660.31	209.24	-97.036	679.38	208.97	-37.644	724.15	32.981	-2.6053	776.7	29.461	-29.191	624.41	74.845	17.38	714.6	244.07	149.85	751.34	573.24	197.69	556.9	47.019	-16.974	662.9	127.24	-31.501	647.51	913.45	214.02	678.36	21.262	-87.516	711.07	155.63	91.537	483.81	854.4	-44.183	490.97	850.19	61.231	600.91	59.514	-61.488	778.69	414.74	157.83	750.01	842.13	165.52	738.48	50.796	61.982	783.22	42.924	102.38	581.49	106.76	70.396	661.17	118.4	41.968	705.04	45.074	143.75	638.84	113.52	121.96
